<svg xmlns="http://www.w3.org/2000/svg" xmlns:xlink="http://www.w3.org/1999/xlink" version="1.1" id="Layer_1" x="0px" y="0px" viewBox="0 0 1200 1200" style="enable-background:new 0 0 1200 1200;" xml:space="preserve">
<style type="text/css">
	.st0{fill:#E9E8E8;}
	.st1{fill:#1D252F;}
	.st2{fill:#407BFF;}
	.st3{fill:#FFFFFF;}
	.st4{fill:none;stroke:#1D252E;stroke-width:4;stroke-linecap:round;stroke-linejoin:round;}
	.st5{fill:#FFFFFF;stroke:#1D252E;stroke-width:4.12;stroke-linecap:round;stroke-linejoin:round;}
	.st6{fill:none;stroke:#1D252E;stroke-width:3;stroke-linecap:round;stroke-linejoin:round;}
	.st7{fill:#1D252E;}
	.st8{fill:#9DD5C0;}
	.st9{fill:none;stroke:#1D252E;stroke-width:2;stroke-linecap:round;stroke-linejoin:round;}
	.st10{fill:none;stroke:#1D252E;stroke-miterlimit:10;}
	.st11{fill:none;stroke:#1D252E;stroke-linecap:round;stroke-linejoin:round;}
	.st12{fill:none;stroke:#1D252E;stroke-width:3;stroke-linecap:round;}
	.st13{fill:none;}
</style>
<path id="Path-141" class="st0" d="M441.9,467.3c110.7-74.8,365-274.1,498.1-158.1s60.3,672.6-332,612.7  c-147.4-22.5-370-35-401.2-104C154.9,702.9,372.8,514,441.9,467.3z"/>
<path class="st1" d="M877.2,396.5V285.6c0-31.8-25.8-57.6-57.6-57.6H562.2c-31.8,0-57.6,25.8-57.6,57.6v45h-2.2v38.8h2.2v9h-2.2  v61.1h2.2v2.3h-2.2V503h2.2v400.9c0,31.8,25.8,57.6,57.6,57.6h257.4c31.8,0,57.6-25.8,57.6-57.6V485.6h2.2v-89.1H877.2z"/>
<path class="st2" d="M853.6,281.5V912c0,14.5-11.7,26.4-26.3,27.2c-0.5,0-1,0-1.4,0h-270c-0.5,0-1,0-1.4,0  c-14.7-0.7-26.3-12.6-26.3-27.2V281.5c0-15,12.5-27.2,27.8-27.2h46.7v5.5c0.1,10.2,8.5,18.3,18.6,18.2c0,0,0,0,0,0h139.3  c10.2,0.1,18.5-8,18.6-18.2v-5.5h46.7C841.2,254.3,853.6,266.5,853.6,281.5z"/>
<circle class="st3" cx="736.5" cy="258.7" r="4.3"/>
<path class="st3" d="M650,254.3h69.5c2.4,0,4.3,1.9,4.3,4.3v0c0,2.4-1.9,4.3-4.3,4.3H650c-2.4,0-4.3-1.9-4.3-4.3v0  C645.6,256.3,647.6,254.3,650,254.3z"/>
<path class="st3" d="M824.1,480.8v147.7c0,5.5-4.5,10-10,10H568.5c-5.5,0-10-4.5-10-10V480.8c0-5.5,4.5-10,10-10h245.6  C819.6,470.8,824.1,475.2,824.1,480.8z"/>
<path class="st4" d="M824.1,546.1v82.4c0,5.5-4.5,10-10,10H568.5c-5.5,0-10-4.5-10-10V480.8c0-5.5,4.5-10,10-10h152.8"/>
<path class="st1" d="M586.4,580.5H669c3.1,0,5.6,2.5,5.6,5.6l0,0c0,3.1-2.5,5.6-5.6,5.6h-82.7c-3.1,0-5.6-2.5-5.6-5.6l0,0  C580.8,582.9,583.3,580.5,586.4,580.5z"/>
<path class="st1" d="M586.4,603.2h108.3c3.1,0,5.6,2.5,5.6,5.6l0,0c0,3.1-2.5,5.6-5.6,5.6H586.4c-3.1,0-5.6-2.5-5.6-5.6l0,0  C580.8,605.7,583.3,603.2,586.4,603.2z"/>
<rect x="558.5" y="497.6" class="st1" width="265.6" height="39.2"/>
<path class="st2" d="M767.1,448.1h32c26.5,0,47.9,21.5,47.9,47.9v0c0,26.5-21.5,47.9-47.9,47.9h-32c-26.5,0-47.9-21.5-47.9-47.9v0  C719.2,469.5,740.6,448.1,767.1,448.1z"/>
<path class="st4" d="M803.8,448.3c24.5,2.5,43.1,23.1,43.2,47.7l0,0c0,25.4-19.8,46.3-45.1,47.8"/>
<path class="st4" d="M779,544h-11.9c-7.3,0-14.5-1.6-21-4.8"/>
<path class="st4" d="M730,465.6c9.1-11.1,22.7-17.6,37.1-17.5H779"/>
<path class="st5" d="M807.9,511.4c2,2.1,1.8,5.5-0.3,7.5c-2,1.9-5.1,1.9-7.1,0L785,503.5l-15.4,15.4c-2,2.1-5.3,2.3-7.5,0.3  c-2.1-2-2.3-5.3-0.3-7.5c0.1-0.1,0.2-0.2,0.3-0.3l15.4-15.4l-15.4-15.4c-2.1-2-2.2-5.4-0.2-7.5c2-2.1,5.4-2.2,7.5-0.2  c0.1,0.1,0.1,0.1,0.2,0.2l15.4,15.4l15.4-15.4c2-2.1,5.4-2.2,7.5-0.2c2.1,2,2.2,5.4,0.2,7.5c-0.1,0.1-0.1,0.1-0.2,0.2L792.5,496  L807.9,511.4z"/>
<line class="st4" x1="594.8" y1="669.3" x2="786.8" y2="669.3"/>
<line class="st4" x1="641.9" y1="688.4" x2="739.8" y2="688.4"/>
<path id="Path-32" class="st3" d="M483.4,924.1l0.5,12.7c0.1,2.9,5,31.3,2.5,32s-74.5,7-65.8,0s36.3-27.3,36-33  c1.6-2.6,0.1-13.5,0.1-13.5L483.4,924.1z"/>
<path id="Path-33" class="st3" d="M386.7,918.8l-0.3,34.8l0.5,17.8l-64.3-1l-1.9-1.9l0.7-1.5c16.9-12.3,32.4-24.4,41-35.3l1.2-14.7  L386.7,918.8z"/>
<path id="Path-32-2" class="st6" d="M483.6,927.7l0.4,9c0.1,2.9,5,31.3,2.5,32s-74.5,7-65.8,0s36.3-27.3,36-33l0.8-4.8"/>
<path id="Path-33-2" class="st6" d="M386.5,922.5c-0.8,18.4-0.7,26.3-0.2,31.2c0.6,5.9,0.7,11.9,0.5,17.8l-64.3-1  c-1,0-1.9-0.9-1.9-1.9c0-0.6,0.2-1.1,0.7-1.5c27.4-20.6,41.1-32.4,41-35.3l0.5-6.4"/>
<polygon id="Path-36" class="st3" points="444.1,489.8 432.2,486.9 428.6,465.1 432.6,458.1 434.2,450.6 439.8,449.8 442.4,444.3   440.6,438.8 438.7,437.2 440.6,427.2 403,426.3 400.9,427.6 396.4,437.6 394.3,448.7 397.1,458 401.7,463.5 408,467.2 410.3,466.9   413.3,487.1 397.1,488.8 412.9,505 445.1,504.2 "/>
<path id="Path-20" class="st6" d="M440.1,489.2l-8.4-1.3l-3.2-22.4c0,0,3.5-6,4.1-7.4c0.9-2.4,1.4-4.9,1.6-7.4c6.1-0.5,8.7-3.1,8-8  c-0.7-4.6-3.7-6.2-9.2-5.2"/>
<path id="Path-21" class="st6" d="M398.7,433.2c-3.8,7.2-5.1,13.3-3.9,18.2c3.1,9.8,8.5,15.2,16.3,16l2.1,20.1l-8,1.2"/>
<path id="Path-31" class="st7" d="M473.8,649.1c1.5,17.7,17.7,273.4,17.7,273.4c-14.9,2.7-26.1,4-33.5,4s-12.7-1.3-16-4l-13.2-220.9  c-6.3,2.7-13.7,2.6-18.9-1l-10.8,216.4c-11.6,1.7-28.1,3.4-33.9,3.3c-6.7-0.2-13.3-1.3-19.7-3.1c0,0,12.3-253,25.1-266.8  S461.3,640.1,473.8,649.1z"/>
<path id="Path-22" class="st6" d="M439.1,433.8c-1.5-0.9-5.7-0.9-7.3-0.6"/>
<path id="Path-23" class="st7" d="M440.4,431.4c-3.4-1.1-7-1.4-10.5-1.1c-0.5-1.3-1-2.6-1.6-4.2c-5.2,7.5-14.3,8.3-27.3,2.3  c-19.5-8.9-1.6-42.6,18.1-31.8c7.1,4,11.2,7.5,12.3,10.5c5.2,0,8.5,1.3,9.9,4.2C443.8,415.1,443.6,421.8,440.4,431.4z"/>
<path id="Path-24" class="st2" d="M444.5,489.3c-6.7,9.4-14.7,13.4-24,12.1c-13.9-2-18.3-5.6-21.1-12.4c-8.7-2.1-19.5,4.4-26.4,8.9  s-21.4,26.1-21,38.6s22.9,11.5,22.9,11.5c-2.6,9.8-2.1,8.3-5.3,43.7c-0.8,15.6-2.3,35.7-4.6,60.2c25.7,8.4,45.2,12.6,58.6,12.6  c13.3,0,31.7-4.1,55.2-12.3l-8.5-93.4c1.7-0.7,9.2-28.3,4.7-49S464.1,492.3,444.5,489.3z"/>
<path class="st3" d="M404.1,440.4c-1.2,10-7.8,17.7-11.3,20.3s-6.1,4.6-8.4,8.8c-3.3,8.9-12.9,32.7-18.7,46.7  c3.4-0.5-6.4,26.4-10.3,26l0,0c-0.5-0.1-1.1-0.2-1.6-0.3l0,0c-6.7-1-12.8-4.4-17.1-9.8c-3.5-3.3,6.1-33.7,38.2-73.7  c6.2-13.2,3.7-16.7,16.5-28.3S405.3,430.4,404.1,440.4z"/>
<path class="st6" d="M355.3,542.2c-6.1-0.8-13-3-18.7-10c-3.5-3.3,6.1-33.7,38.2-73.7c6.2-13.2,3.7-16.7,16.5-28.3s14,0.2,12.8,10.2  s-7.8,17.7-11.3,20.3s-6.1,4.6-8.4,8.8c-3.9,10.5-15.7,48.2-18.2,48.9"/>
<path class="st6" d="M370.5,581.9c0,0,2.6-39.9,9-46.3"/>
<path class="st8" d="M357.9,554.9l-10.5,0.2c-1.3,0.1-2.5-0.5-3.2-1.6l-17.9-30.2c-1.4-2.3,0.7-4.6,3.8-4.7l11.9,0.2  c1.3-0.1,2.5,0.5,3.2,1.6l16.7,29.1C363.4,551.7,361,554.8,357.9,554.9z"/>
<path class="st9" d="M361,546.6L343.8,519l-14.1-0.1c-4.1-0.2-3.3,4.4-3.3,4.4H341l13.6,21.3"/>
<ellipse transform="matrix(0.9337 -0.358 0.358 0.9337 -166.6012 153.5542)" class="st10" cx="331.4" cy="526.7" rx="0.9" ry="1"/>
<line class="st11" x1="343.4" y1="522.9" x2="345.7" y2="526.4"/>
<path id="Path-93" class="st3" d="M437.4,575.1c-7.9,8.4-20.8,6.2-20.8,6.2l-54.2-24.7c-4.2,1.9-8.8,2.6-13.3,1.9  c-6.9-1.3-18.3-9.4-19.7-17.2s19.5-6,24.5-5.8c3.4,0.2,8.8,2.5,16.1,7l46.8,10.6l8.5-8.4l24.7,18.4L437.4,575.1z"/>
<path id="Path-93-2" class="st12" d="M437.4,575.1c-7.9,8.4-20.6,6.2-20.6,6.2l-54.5-24.6c-4.2,1.9-8.8,2.6-13.3,1.9  c-6.9-1.3-18.3-9.4-19.7-17.2s19.5-6,24.5-5.8c3.4,0.2,8.8,2.5,16.1,7l46.8,10.6"/>
<path id="Path-88" class="st2" d="M445.6,573.2L418.2,546c16.6-24.1,34.7-58,47.2-52.8c20.6,8.6,17.6,30.3,15.3,40.3  C474.8,558.6,445.6,573.2,445.6,573.2z"/>
<path id="Path-88-2" class="st12" d="M479.9,535.9c-11.1,23.2-34.3,37.3-34.3,37.3"/>
<path class="st12" d="M433.8,534.4c-3.3,1.3-5.5,4.1-7.8,8"/>
<rect class="st13" width="1200" height="1200"/>
</svg>